<?xml version="1.0" encoding="UTF-8" standalone="no"?>
<svg
   height="800"
   style="clip-rule:evenodd;fill-rule:evenodd;stroke-linejoin:round;stroke-miterlimit:2"
   version="1.1"
   viewBox="0 0 800 800"
   width="800"
   xml:space="preserve"
   id="svg2558"
   sodipodi:docname="gamepad.svg"
   inkscape:version="1.2.2 (732a01da63, 2022-12-09)"
   xmlns:inkscape="http://www.inkscape.org/namespaces/inkscape"
   xmlns:sodipodi="http://sodipodi.sourceforge.net/DTD/sodipodi-0.dtd"
   xmlns="http://www.w3.org/2000/svg"
   xmlns:svg="http://www.w3.org/2000/svg"><defs
     id="defs2562" /><sodipodi:namedview
     id="namedview2560"
     pagecolor="#ffffff"
     bordercolor="#000000"
     borderopacity="0.25"
     inkscape:showpageshadow="2"
     inkscape:pageopacity="0.0"
     inkscape:pagecheckerboard="0"
     inkscape:deskcolor="#d1d1d1"
     showgrid="false"
     inkscape:zoom="0.82039289"
     inkscape:cx="385.79076"
     inkscape:cy="402.24629"
     inkscape:window-width="1920"
     inkscape:window-height="1057"
     inkscape:window-x="-8"
     inkscape:window-y="-8"
     inkscape:window-maximized="1"
     inkscape:current-layer="g2556" /><g
     id="g2556"
     transform="matrix(0.75209716,0,0,0.69482224,-2.1692904,24.435725)"><path
       d="m 434.469,693.912 h 200.523 c 13.34,46.165 44.047,85.433 85.747,109.508 42.759,24.687 93.575,31.377 141.267,18.598 0.035,-0.01 0.071,-0.019 0.106,-0.029 47.692,-12.779 88.355,-43.98 113.042,-86.74 24.687,-42.759 31.377,-93.575 18.598,-141.267 -17.208,-64.223 -37.272,-139.1 -54.48,-203.323 -12.779,-47.692 -43.98,-88.355 -86.74,-113.042 -42.76,-24.687 -93.575,-31.377 -141.267,-18.598 -0.036,0.009 -0.071,0.019 -0.107,0.029 -27.438,7.351 -52.55,20.801 -73.63,39.042 0.013,-0.012 -205.608,-0.012 -205.608,-0.012 -21.055,-18.223 -46.172,-31.677 -73.617,-39.031 -0.035,-0.009 -0.071,-0.019 -0.106,-0.028 -47.692,-12.779 -98.508,-6.089 -141.267,18.598 -42.76,24.687 -73.961,65.35 -86.74,113.042 -17.209,64.223 -37.272,139.1 -54.481,203.323 -12.779,47.692 -6.089,98.508 18.598,141.267 24.688,42.76 65.35,73.961 113.042,86.74 0.036,0.01 0.071,0.019 0.107,0.029 47.692,12.779 98.507,6.089 141.267,-18.598 41.699,-24.075 72.406,-63.343 85.746,-109.508 z m 254.788,-38.789 c -7.111,-24.401 -29.867,-23.713 -30.333,-23.711 -125.182,0.391 -248.387,0 -248.387,0 -16.192,0.388 -27,11.117 -30.332,23.711 -2.122,8.02 -3.362,12.53 -4.992,18.63 -2.627,9.835 -2.635,9.833 -0.12,0.449 -8.489,31.681 -29.216,58.692 -57.62,75.091 -28.404,16.399 -62.16,20.843 -93.841,12.354 l -0.107,-0.028 c -31.681,-8.489 -58.692,-29.215 -75.091,-57.62 -16.399,-28.404 -20.843,-62.16 -12.354,-93.841 17.208,-64.223 37.271,-139.1 54.48,-203.323 8.489,-31.681 29.215,-58.692 57.62,-75.092 28.404,-16.399 62.16,-20.843 93.84,-12.354 l 0.107,0.029 c 21.15,5.667 40.219,16.788 55.438,32.007 5.861,5.861 13.809,9.153 22.097,9.153 h 230.137 c 8.288,0 16.237,-3.292 22.097,-9.153 15.219,-15.219 34.288,-26.34 55.438,-32.007 l 0.107,-0.029 c 31.681,-8.489 65.437,-4.045 93.841,12.354 28.404,16.4 49.131,43.411 57.62,75.092 17.208,64.223 37.271,139.1 54.48,203.323 8.489,31.681 4.045,65.437 -12.354,93.841 -16.4,28.405 -43.411,49.131 -75.092,57.62 l -0.107,0.028 c -31.681,8.489 -65.436,4.045 -93.841,-12.354 -28.124,-16.238 -48.721,-42.879 -57.365,-74.156 z m -254.973,38.789 h -0.014 l -0.085,0.229 -0.654,1.495 c 0.268,-0.564 0.52,-1.139 0.753,-1.724 z"
       id="path2552"
       style="display:inline;fill:#8c8c8c;fill-opacity:1"
       sodipodi:nodetypes="ccccccccscccccccccccccccccsccsccccccccssscccccsccccccccccc" /><path
       d="m 736.8513,550.61284 c 0,-18.25751 13.69378,-33.08117 30.56196,-33.08117 16.868,0 30.56184,14.82366 30.56184,33.08117 0,18.25851 -13.69384,33.08217 -30.56184,33.08217 -16.86818,0 -30.56196,-14.82366 -30.56196,-33.08217 z m 86.42406,-93.5481 c 16.86802,0 30.56285,14.82266 30.56285,33.08117 0,18.25851 -13.69483,33.08117 -30.56285,33.08117 -16.86713,0 -30.5619,-14.82266 -30.5619,-33.08117 0,-18.25851 13.69477,-33.08117 30.5619,-33.08117 z m -111.72433,0 c 16.8672,0 30.56187,14.82266 30.56187,33.08117 0,18.25851 -13.69467,33.08117 -30.56187,33.08117 -16.868,0 -30.56283,-14.82266 -30.56283,-33.08117 0,-18.25851 13.69483,-33.08117 30.56283,-33.08117 z m 25.30027,-27.38577 c 0,-18.25851 13.69378,-33.08217 30.56196,-33.08217 16.868,0 30.56184,14.82366 30.56184,33.08217 0,18.25751 -13.69384,33.08117 -30.56184,33.08117 -16.86818,0 -30.56196,-14.82366 -30.56196,-33.08117 z"
       style="display:inline;fill:#8c8c8c;fill-opacity:1;stroke-width:0.961407"
       id="path2554" /><path
       d="m 273.17077,458.88819 h -28.6705 c -15.93759,0 -28.87748,14.00646 -28.87748,31.25772 0,17.25126 12.93989,31.25772 28.87748,31.25772 h 28.6705 v 31.03367 c 0,17.25126 12.93895,31.25771 28.87749,31.25771 15.93759,0 28.87748,-14.00645 28.87748,-31.25771 v -31.03367 h 28.66956 c 15.93854,0 28.8775,-14.00646 28.8775,-31.25772 0,-17.25126 -12.93896,-31.25772 -28.8775,-31.25772 h -28.66956 v -31.03367 c 0,-17.25126 -12.93989,-31.25772 -28.87748,-31.25772 -15.93854,0 -28.87749,14.00646 -28.87749,31.25772 z"
       id="path3888"
       sodipodi:nodetypes="cssscssscssscsssc"
       style="display:inline;stroke-width:0.961412;fill:#8c8c8c;fill-opacity:1" /></g></svg>
