<?xml version="1.0" encoding="UTF-8" standalone="no"?>
<!-- Generator: Adobe Illustrator 16.0.0, SVG Export Plug-In . SVG Version: 6.00 Build 0)  -->

<svg
   version="1.1"
   id="Capa_1"
   x="0px"
   y="0px"
   width="800"
   height="800"
   viewBox="0 0 799.99996 799.99996"
   xml:space="preserve"
   sodipodi:docname="keyboard.svg"
   inkscape:version="1.2.2 (732a01da63, 2022-12-09)"
   xmlns:inkscape="http://www.inkscape.org/namespaces/inkscape"
   xmlns:sodipodi="http://sodipodi.sourceforge.net/DTD/sodipodi-0.dtd"
   xmlns="http://www.w3.org/2000/svg"
   xmlns:svg="http://www.w3.org/2000/svg"><defs
   id="defs2502" /><sodipodi:namedview
   id="namedview2500"
   pagecolor="#ffffff"
   bordercolor="#000000"
   borderopacity="0.25"
   inkscape:showpageshadow="2"
   inkscape:pageopacity="0.0"
   inkscape:pagecheckerboard="0"
   inkscape:deskcolor="#d1d1d1"
   showgrid="false"
   inkscape:zoom="1.1312655"
   inkscape:cx="391.15486"
   inkscape:cy="400.4365"
   inkscape:window-width="1920"
   inkscape:window-height="1057"
   inkscape:window-x="-8"
   inkscape:window-y="-8"
   inkscape:window-maximized="1"
   inkscape:current-layer="Capa_1"><inkscape:grid
     type="xygrid"
     id="grid3078" /></sodipodi:namedview>
<g
   id="g2465"
   transform="matrix(1.2769621,0,0,1.27319,100.00001,254.53389)"
   style="fill:#ffffff;fill-opacity:1">
		<path
   d="m 501.18949,-34.978194 c -7.13899,-6.8191 -13.40526,-7.854287 -23.49325,-7.854287 H -7.8310954 c -10.0879996,0 -16.3552566,1.036142 -23.4932576,7.854287 -7.137,6.818144 -7.831086,13.929775 -7.831086,23.562861 V 239.92186 c 0,9.63691 0.694086,16.74375 7.831086,23.56286 7.139001,6.8191 13.405258,7.85429 23.4932576,7.85429 H 477.69624 c 10.08799,0 16.35426,-1.03519 23.49325,-7.85429 7.13502,-6.81911 7.83109,-13.92595 7.83109,-23.56286 V -11.415333 c 0,-9.633086 -0.69607,-16.744717 -7.83109,-23.562861 z M 477.69624,239.92186 H -7.8310954 V -11.415333 H 477.69624 Z"
   id="path2437"
   style="stroke-width:0.97734;fill:#ffffff;fill-opacity:1"
   sodipodi:nodetypes="csscsscsscsscccccc" />
		
		
		<path
   d="m 11.746619,82.836116 46.986519,-7e-6 c 3.00249,-10e-7 3.91554,-0.91683 3.91554,-3.92714 v -23.56286 c 0,-3.011312 -0.91009,-3.922212 -3.91554,-3.927152 l -46.986519,7e-6 c -3.000521,0 -3.915541,0.91584 -3.915541,3.927152 v 23.56286 c 0,3.01031 0.91502,3.92714 3.915541,3.92714 z"
   id="path2443-7"
   style="stroke-width:0.987161;fill:#ffffff;fill-opacity:1"
   sodipodi:nodetypes="sssscssss" /><path
   d="m 411.132,82.836119 46.98652,-7e-6 c 3.00249,-10e-7 3.91554,-0.91683 3.91554,-3.92714 v -23.56286 c 0,-3.011312 -0.91009,-3.922212 -3.91554,-3.927152 l -46.98652,7e-6 c -3.00052,0 -3.91554,0.91584 -3.91554,3.927152 v 23.56286 c 0,3.01031 0.91502,3.92714 3.91554,3.92714 z"
   id="path2443-7-29"
   style="stroke-width:0.987161;fill:#ffffff;fill-opacity:1"
   sodipodi:nodetypes="sssscssss" /><path
   d="m 82.226392,82.836116 h 23.493258 c 3.00249,0 3.91554,-0.91683 3.91554,-3.92714 v -23.56286 c 0,-3.011312 -0.91009,-3.922212 -3.91554,-3.927152 H 82.226392 c -3.00052,0 -3.91554,0.91584 -3.91554,3.927152 v 23.56286 c 0,3.01031 0.91502,3.92714 3.91554,3.92714 z"
   id="path2443-7-3"
   style="stroke-width:0.987161;fill:#ffffff;fill-opacity:1"
   sodipodi:nodetypes="sssscssss" /><path
   d="m 129.21291,82.836116 h 23.49326 c 3.00249,0 3.91554,-0.91683 3.91554,-3.92714 v -23.56286 c 0,-3.011312 -0.91009,-3.922212 -3.91554,-3.927152 h -23.49326 c -3.00052,0 -3.91554,0.91584 -3.91554,3.927152 v 23.56286 c 0,3.01031 0.91502,3.92714 3.91554,3.92714 z"
   id="path2443-7-7"
   style="stroke-width:0.987161;fill:#ffffff;fill-opacity:1"
   sodipodi:nodetypes="sssscssss" /><path
   d="m 176.19942,82.836116 h 23.49326 c 3.00249,0 3.91554,-0.91683 3.91554,-3.92714 v -23.56286 c 0,-3.011312 -0.91009,-3.922212 -3.91554,-3.927152 h -23.49326 c -3.00052,0 -3.91554,0.91584 -3.91554,3.927152 v 23.56286 c 0,3.01031 0.91502,3.92714 3.91554,3.92714 z"
   id="path2443-7-5"
   style="stroke-width:0.987161;fill:#ffffff;fill-opacity:1"
   sodipodi:nodetypes="sssscssss" /><path
   d="m 223.18594,82.836116 h 23.49326 c 3.00249,0 3.91554,-0.91683 3.91554,-3.92714 v -23.56286 c 0,-3.011312 -0.91009,-3.922212 -3.91554,-3.927152 h -23.49326 c -3.00052,0 -3.91554,0.91584 -3.91554,3.927152 v 23.56286 c 0,3.01031 0.91502,3.92714 3.91554,3.92714 z"
   id="path2443-7-8"
   style="stroke-width:0.987161;fill:#ffffff;fill-opacity:1"
   sodipodi:nodetypes="sssscssss" /><path
   d="m 270.17246,82.836116 h 23.49326 c 3.00249,0 3.91554,-0.91683 3.91554,-3.92714 v -23.56286 c 0,-3.011312 -0.91009,-3.922212 -3.91554,-3.927152 h -23.49326 c -3.00052,0 -3.91554,0.91584 -3.91554,3.927152 v 23.56286 c 0,3.01031 0.91502,3.92714 3.91554,3.92714 z"
   id="path2443-7-1"
   style="stroke-width:0.987161;fill:#ffffff;fill-opacity:1"
   sodipodi:nodetypes="sssscssss" /><path
   d="m 317.15897,82.836116 h 23.49326 c 3.00249,0 3.91554,-0.91683 3.91554,-3.92714 v -23.56286 c 0,-3.011312 -0.91009,-3.922212 -3.91554,-3.927152 h -23.49326 c -3.00052,0 -3.91554,0.91584 -3.91554,3.927152 v 23.56286 c 0,3.01031 0.91502,3.92714 3.91554,3.92714 z"
   id="path2443-7-59"
   style="stroke-width:0.987161;fill:#ffffff;fill-opacity:1"
   sodipodi:nodetypes="sssscssss" /><path
   d="m 364.14549,82.836116 h 23.49326 c 3.00249,0 3.91554,-0.91683 3.91554,-3.92714 v -23.56286 c 0,-3.011312 -0.91009,-3.922212 -3.91554,-3.927152 h -23.49326 c -3.00052,0 -3.91554,0.91584 -3.91554,3.927152 v 23.56286 c 0,3.01031 0.91502,3.92714 3.91554,3.92714 z"
   id="path2443-7-33"
   style="stroke-width:0.987161;fill:#ffffff;fill-opacity:1"
   sodipodi:nodetypes="sssscssss" /><path
   d="m 93.973023,129.96184 h 23.493257 c 3.00249,0 3.91554,-0.91683 3.91554,-3.92714 v -23.56286 c 0,-3.011313 -0.91009,-3.922213 -3.91554,-3.927153 H 93.973023 c -3.00052,0 -3.91554,0.91584 -3.91554,3.927153 v 23.56286 c 0,3.01031 0.91502,3.92714 3.91554,3.92714 z"
   id="path2443-7-55"
   style="stroke-width:0.987161;fill:#ffffff;fill-opacity:1"
   sodipodi:nodetypes="sssscssss" /><path
   d="m 140.95954,129.96184 h 23.49326 c 3.00249,0 3.91554,-0.91683 3.91554,-3.92714 v -23.56286 c 0,-3.011313 -0.91009,-3.922213 -3.91554,-3.927153 h -23.49326 c -3.00052,0 -3.91554,0.91584 -3.91554,3.927153 v 23.56286 c 0,3.01031 0.91502,3.92714 3.91554,3.92714 z"
   id="path2443-7-6"
   style="stroke-width:0.987161;fill:#ffffff;fill-opacity:1"
   sodipodi:nodetypes="sssscssss" /><path
   d="m 187.94605,129.96184 h 23.49326 c 3.00249,0 3.91554,-0.91683 3.91554,-3.92714 v -23.56286 c 0,-3.011314 -0.91009,-3.922214 -3.91554,-3.927154 h -23.49326 c -3.00052,0 -3.91554,0.91584 -3.91554,3.927154 v 23.56286 c 0,3.01031 0.91502,3.92714 3.91554,3.92714 z"
   id="path2443-7-35"
   style="stroke-width:0.987161;fill:#ffffff;fill-opacity:1"
   sodipodi:nodetypes="sssscssss" /><path
   d="m 234.93257,129.96184 h 23.49326 c 3.00249,0 3.91554,-0.91683 3.91554,-3.92714 v -23.56286 c 0,-3.011314 -0.91009,-3.922214 -3.91554,-3.927154 h -23.49326 c -3.00052,0 -3.91554,0.91584 -3.91554,3.927154 v 23.56286 c 0,3.01031 0.91502,3.92714 3.91554,3.92714 z"
   id="path2443-7-2"
   style="stroke-width:0.987161;fill:#ffffff;fill-opacity:1"
   sodipodi:nodetypes="sssscssss" /><path
   d="m 281.91908,129.96184 h 23.49326 c 3.00249,0 3.91554,-0.91683 3.91554,-3.92714 v -23.56286 c 0,-3.011314 -0.91009,-3.922214 -3.91554,-3.927154 h -23.49326 c -3.00052,0 -3.91554,0.91584 -3.91554,3.927154 v 23.56286 c 0,3.01031 0.91502,3.92714 3.91554,3.92714 z"
   id="path2443-7-34"
   style="stroke-width:0.987161;fill:#ffffff;fill-opacity:1"
   sodipodi:nodetypes="sssscssss" /><path
   d="m 328.9056,129.96184 h 23.49326 c 3.00249,0 3.91554,-0.91683 3.91554,-3.92714 v -23.56286 c 0,-3.011313 -0.91009,-3.922213 -3.91554,-3.927153 H 328.9056 c -3.00052,0 -3.91554,0.91584 -3.91554,3.927153 v 23.56286 c 0,3.01031 0.91502,3.92714 3.91554,3.92714 z"
   id="path2443-7-4"
   style="stroke-width:0.987161;fill:#ffffff;fill-opacity:1"
   sodipodi:nodetypes="sssscssss" /><path
   d="m 305.41234,177.08756 h 23.49326 c 3.00249,0 3.91554,-0.91683 3.91554,-3.92714 v -23.56286 c 0,-3.01131 -0.91009,-3.92221 -3.91554,-3.92715 h -23.49326 c -3.00052,0 -3.91554,0.91584 -3.91554,3.92715 v 23.56286 c 0,3.01031 0.91502,3.92714 3.91554,3.92714 z"
   id="path2443-7-10"
   style="stroke-width:0.987161;fill:#ffffff;fill-opacity:1"
   sodipodi:nodetypes="sssscssss" /><path
   d="m 258.42583,177.08756 h 23.49326 c 3.00249,0 3.91554,-0.91683 3.91554,-3.92714 v -23.56286 c 0,-3.01131 -0.91009,-3.92221 -3.91554,-3.92715 h -23.49326 c -3.00052,0 -3.91554,0.91584 -3.91554,3.92715 v 23.56286 c 0,3.01031 0.91502,3.92714 3.91554,3.92714 z"
   id="path2443-7-05"
   style="stroke-width:0.987161;fill:#ffffff;fill-opacity:1"
   sodipodi:nodetypes="sssscssss" /><path
   d="m 211.43931,177.08756 h 23.49326 c 3.00249,0 3.91554,-0.91683 3.91554,-3.92714 v -23.56286 c 0,-3.01131 -0.91009,-3.92221 -3.91554,-3.92715 h -23.49326 c -3.00052,0 -3.91554,0.91584 -3.91554,3.92715 v 23.56286 c 0,3.01031 0.91502,3.92714 3.91554,3.92714 z"
   id="path2443-7-48"
   style="stroke-width:0.987161;fill:#ffffff;fill-opacity:1"
   sodipodi:nodetypes="sssscssss" /><path
   d="m 164.4528,177.08756 h 23.49326 c 3.00249,0 3.91554,-0.91683 3.91554,-3.92714 v -23.56286 c 0,-3.01131 -0.91009,-3.92221 -3.91554,-3.92715 H 164.4528 c -3.00052,0 -3.91554,0.91584 -3.91554,3.92715 v 23.56286 c 0,3.01031 0.91502,3.92714 3.91554,3.92714 z"
   id="path2443-7-87"
   style="stroke-width:0.987161;fill:#ffffff;fill-opacity:1"
   sodipodi:nodetypes="sssscssss" /><path
   d="m 117.46628,177.08757 h 23.49326 c 3.00249,0 3.91554,-0.91683 3.91554,-3.92714 v -23.56286 c 0,-3.01132 -0.91009,-3.92222 -3.91554,-3.92716 h -23.49326 c -3.00052,0 -3.91554,0.91584 -3.91554,3.92716 v 23.56286 c 0,3.01031 0.91502,3.92714 3.91554,3.92714 z"
   id="path2443-7-102"
   style="stroke-width:0.987161;fill:#ffffff;fill-opacity:1"
   sodipodi:nodetypes="sssscssss" /><path
   d="m 11.746615,129.96184 h 58.73315 c 3.002492,0 3.915542,-0.91683 3.915542,-3.92714 v -23.56287 c 0,-3.01131 -0.91009,-3.9222 -3.915542,-3.92714 l -58.73315,-2e-6 c -3.0005195,0 -3.9155395,0.91584 -3.9155395,3.927142 v 23.56287 c 0,3.01031 0.91502,3.92714 3.9155395,3.92714 z"
   id="path2443-70"
   style="stroke-width:0.987161;fill:#ffffff;fill-opacity:1"
   sodipodi:nodetypes="sssscssss" /><path
   d="m 375.8921,129.96184 h 82.22641 c 3.0025,0 3.91555,-0.91683 3.91555,-3.92714 v -23.56287 c 0,-3.011313 -0.91009,-3.922203 -3.91555,-3.927143 H 375.8921 c -3.00051,0 -3.91553,0.91584 -3.91553,3.927143 v 23.56287 c 0,3.01031 0.91502,3.92714 3.91553,3.92714 z"
   id="path2443-70-9"
   style="stroke-width:0.987161;fill:#ffffff;fill-opacity:1"
   sodipodi:nodetypes="sssscssss" /><path
   d="m 11.746614,177.08756 82.226409,1e-5 c 3.002492,0 3.915542,-0.91683 3.915542,-3.92714 v -23.56287 c 0,-3.01131 -0.91009,-3.9222 -3.915542,-3.92714 l -82.226409,-1e-5 c -3.000519,0 -3.915539,0.91584 -3.915539,3.92714 v 23.56287 c 0,3.01031 0.91502,3.92714 3.915539,3.92714 z"
   id="path2443-70-4"
   style="stroke-width:0.987161;fill:#ffffff;fill-opacity:1"
   sodipodi:nodetypes="sssscssss" /><path
   d="m 11.746619,224.21328 h 23.49326 c 3.00249,0 3.91554,-0.91683 3.91554,-3.92714 v -23.56286 c 0,-3.01131 -0.91009,-3.92221 -3.91554,-3.92715 h -23.49326 c -3.0005205,0 -3.9155505,0.91584 -3.9155505,3.92715 v 23.56286 c 0,3.01031 0.91503,3.92714 3.9155505,3.92714 z"
   id="path2443-72"
   style="stroke-width:0.987161;fill:#ffffff;fill-opacity:1"
   sodipodi:nodetypes="sssscssss" /><path
   d="m 58.733139,224.21328 h 23.49326 c 3.00249,0 3.91554,-0.91683 3.91554,-3.92714 v -23.56286 c 0,-3.01131 -0.91009,-3.92221 -3.91554,-3.92715 h -23.49326 c -3.00052,0 -3.91555,0.91584 -3.91555,3.92715 v 23.56286 c 0,3.01031 0.91503,3.92714 3.91555,3.92714 z"
   id="path2443-72-8"
   style="stroke-width:0.987161;fill:#ffffff;fill-opacity:1"
   sodipodi:nodetypes="sssscssss" /><path
   d="m 105.71965,224.21328 h 23.49326 c 3.0025,0 3.91555,-0.91683 3.91555,-3.92714 v -23.56286 c 0,-3.01131 -0.91009,-3.92221 -3.91555,-3.92715 h -23.49326 c -3.00052,0 -3.91555,0.91584 -3.91555,3.92715 v 23.56286 c 0,3.01031 0.91503,3.92714 3.91555,3.92714 z"
   id="path2443-72-83"
   style="stroke-width:0.987161;fill:#ffffff;fill-opacity:1"
   sodipodi:nodetypes="sssscssss" /><path
   d="m 340.65223,224.21328 h 23.49326 c 3.00249,0 3.91554,-0.91683 3.91554,-3.92714 v -23.56286 c 0,-3.01131 -0.91009,-3.92221 -3.91554,-3.92715 h -23.49326 c -3.00052,0 -3.91555,0.91584 -3.91555,3.92715 v 23.56286 c 0,3.01031 0.91503,3.92714 3.91555,3.92714 z"
   id="path2443-72-6"
   style="stroke-width:0.987161;fill:#ffffff;fill-opacity:1"
   sodipodi:nodetypes="sssscssss" /><path
   d="m 387.63875,224.21328 h 23.49326 c 3.00249,0 3.91554,-0.91683 3.91554,-3.92714 v -23.56286 c 0,-3.01131 -0.91009,-3.92221 -3.91554,-3.92715 h -23.49326 c -3.00052,0 -3.91555,0.91584 -3.91555,3.92715 v 23.56286 c 0,3.01031 0.91503,3.92714 3.91555,3.92714 z"
   id="path2443-72-4"
   style="stroke-width:0.987161;fill:#ffffff;fill-opacity:1"
   sodipodi:nodetypes="sssscssss" /><path
   d="m 434.62527,224.21328 h 23.49326 c 3.00249,0 3.91554,-0.91683 3.91554,-3.92714 v -23.56286 c 0,-3.01131 -0.91009,-3.92221 -3.91554,-3.92715 h -23.49326 c -3.00052,0 -3.91555,0.91584 -3.91555,3.92715 v 23.56286 c 0,3.01031 0.91503,3.92714 3.91555,3.92714 z"
   id="path2443-72-44"
   style="stroke-width:0.987161;fill:#ffffff;fill-opacity:1"
   sodipodi:nodetypes="sssscssss" /><path
   d="m 58.733139,35.71039 h 23.49326 c 3.00249,0 3.91554,-0.91683 3.91554,-3.92714 V 8.2203928 c 0,-3.01131 -0.91009,-3.92221 -3.91554,-3.92715 h -23.49326 c -3.00052,0 -3.91555,0.91584 -3.91555,3.92715 V 31.78325 c 0,3.01031 0.91503,3.92714 3.91555,3.92714 z"
   id="path2443-72-9"
   style="stroke-width:0.987161;fill:#ffffff;fill-opacity:1"
   sodipodi:nodetypes="sssscssss" /><path
   d="m 105.71966,35.71039 h 23.49326 c 3.00249,0 3.91554,-0.91683 3.91554,-3.92714 V 8.2203928 c 0,-3.01131 -0.91009,-3.92221 -3.91554,-3.92715 h -23.49326 c -3.00052,0 -3.91555,0.91584 -3.91555,3.92715 V 31.78325 c 0,3.01031 0.91503,3.92714 3.91555,3.92714 z"
   id="path2443-72-9-4"
   style="stroke-width:0.987161;fill:#ffffff;fill-opacity:1"
   sodipodi:nodetypes="sssscssss" /><path
   d="m 152.70617,35.71039 h 23.49326 c 3.00249,0 3.91554,-0.91683 3.91554,-3.92714 V 8.2203928 c 0,-3.01131 -0.91009,-3.92221 -3.91554,-3.92715 h -23.49326 c -3.00052,0 -3.91555,0.91584 -3.91555,3.92715 V 31.78325 c 0,3.01031 0.91503,3.92714 3.91555,3.92714 z"
   id="path2443-72-9-2"
   style="stroke-width:0.987161;fill:#ffffff;fill-opacity:1"
   sodipodi:nodetypes="sssscssss" /><path
   d="m 199.69269,35.71039 h 23.49326 c 3.00249,0 3.91554,-0.91683 3.91554,-3.92714 V 8.2203928 c 0,-3.01131 -0.91009,-3.92221 -3.91554,-3.92715 h -23.49326 c -3.00052,0 -3.91555,0.91584 -3.91555,3.92715 V 31.78325 c 0,3.01031 0.91503,3.92714 3.91555,3.92714 z"
   id="path2443-72-9-45"
   style="stroke-width:0.987161;fill:#ffffff;fill-opacity:1"
   sodipodi:nodetypes="sssscssss" /><path
   d="m 246.6792,35.71039 h 23.49326 c 3.00249,0 3.91554,-0.91683 3.91554,-3.92714 V 8.2203928 c 0,-3.01131 -0.91009,-3.92221 -3.91554,-3.92715 H 246.6792 c -3.00052,0 -3.91555,0.91584 -3.91555,3.92715 V 31.78325 c 0,3.01031 0.91503,3.92714 3.91555,3.92714 z"
   id="path2443-72-9-29"
   style="stroke-width:0.987161;fill:#ffffff;fill-opacity:1"
   sodipodi:nodetypes="sssscssss" /><path
   d="m 293.66572,35.71039 h 23.49326 c 3.00249,0 3.91554,-0.91683 3.91554,-3.92714 V 8.2203927 c 0,-3.01131 -0.91009,-3.92221 -3.91554,-3.92715 h -23.49326 c -3.00052,0 -3.91555,0.91584 -3.91555,3.92715 V 31.78325 c 0,3.01031 0.91503,3.92714 3.91555,3.92714 z"
   id="path2443-72-9-1"
   style="stroke-width:0.987161;fill:#ffffff;fill-opacity:1"
   sodipodi:nodetypes="sssscssss" /><path
   d="m 340.65223,35.71039 h 23.49326 c 3.00249,0 3.91554,-0.91683 3.91554,-3.92714 V 8.2203927 c 0,-3.01131 -0.91009,-3.92221 -3.91554,-3.92715 h -23.49326 c -3.00052,0 -3.91555,0.91584 -3.91555,3.92715 V 31.78325 c 0,3.01031 0.91503,3.92714 3.91555,3.92714 z"
   id="path2443-72-9-3"
   style="stroke-width:0.987161;fill:#ffffff;fill-opacity:1"
   sodipodi:nodetypes="sssscssss" /><path
   d="m 387.63875,35.71039 h 23.49326 c 3.00249,0 3.91554,-0.91683 3.91554,-3.92714 V 8.2203927 c 0,-3.01131 -0.91009,-3.92221 -3.91554,-3.92715 h -23.49326 c -3.00052,0 -3.91555,0.91584 -3.91555,3.92715 V 31.78325 c 0,3.01031 0.91503,3.92714 3.91555,3.92714 z"
   id="path2443-72-9-8"
   style="stroke-width:0.987161;fill:#ffffff;fill-opacity:1"
   sodipodi:nodetypes="sssscssss" /><path
   d="m 434.62527,35.71039 h 23.49326 c 3.00249,0 3.91554,-0.91683 3.91554,-3.92714 V 8.2203928 c 0,-3.01131 -0.91009,-3.92221 -3.91554,-3.92715 h -23.49326 c -3.00052,0 -3.91555,0.91584 -3.91555,3.92715 V 31.78325 c 0,3.01031 0.91503,3.92714 3.91555,3.92714 z"
   id="path2443-72-9-27"
   style="stroke-width:0.987161;fill:#ffffff;fill-opacity:1"
   sodipodi:nodetypes="sssscssss" /><path
   d="m 11.746624,35.71039 h 23.49326 c 3.00249,0 3.91554,-0.91683 3.91554,-3.92714 V 8.2203927 c 0,-3.01131 -0.91009,-3.92221 -3.91554,-3.92715 h -23.49326 c -3.0005207,0 -3.9155507,0.91584 -3.9155507,3.92715 V 31.78325 c 0,3.01031 0.91503,3.92714 3.9155507,3.92714 z"
   id="path2443-72-9-5"
   style="stroke-width:0.987161;fill:#ffffff;fill-opacity:1"
   sodipodi:nodetypes="sssscssss" /><path
   d="m 152.70616,224.21328 h 164.45281 c 3.00249,0 3.91555,-0.91683 3.91555,-3.92714 v -23.56286 c 0,-3.01131 -0.9101,-3.92221 -3.91555,-3.92715 H 152.70616 c -3.00052,0 -3.91554,0.91584 -3.91554,3.92715 v 23.56286 c 0,3.01031 0.91502,3.92714 3.91554,3.92714 z"
   id="path2443-9"
   style="stroke-width:0.987161;fill:#ffffff;fill-opacity:1"
   sodipodi:nodetypes="sssscssss" />
		
		
		
		
		
		
		
		
		
		
	<path
   d="m 352.39886,177.08757 105.71965,-1e-5 c 3.0025,0 3.91555,-0.91683 3.91555,-3.92714 v -23.56287 c 0,-3.01131 -0.9101,-3.9222 -3.91555,-3.92714 l -105.71965,1e-5 c -3.00052,0 -3.91554,0.91584 -3.91554,3.92714 v 23.56287 c 0,3.01031 0.91502,3.92714 3.91554,3.92714 z"
   id="path2443-70-4-2"
   style="stroke-width:0.987161;fill:#ffffff;fill-opacity:1"
   sodipodi:nodetypes="sssscssss" /></g>















</svg>
