<?xml version="1.0" encoding="UTF-8" standalone="no"?>
<!-- Generator: Adobe Illustrator 16.0.0, SVG Export Plug-In . SVG Version: 6.00 Build 0)  -->

<svg
   version="1.1"
   id="Capa_1"
   x="0px"
   y="0px"
   width="800"
   height="800"
   viewBox="0 0 800 800"
   xml:space="preserve"
   sodipodi:docname="pause.svg"
   inkscape:version="1.2.2 (732a01da63, 2022-12-09)"
   xmlns:inkscape="http://www.inkscape.org/namespaces/inkscape"
   xmlns:sodipodi="http://sodipodi.sourceforge.net/DTD/sodipodi-0.dtd"
   xmlns="http://www.w3.org/2000/svg"
   xmlns:svg="http://www.w3.org/2000/svg"><defs
   id="defs428" /><sodipodi:namedview
   id="namedview426"
   pagecolor="#ffffff"
   bordercolor="#000000"
   borderopacity="0.25"
   inkscape:showpageshadow="2"
   inkscape:pageopacity="0.0"
   inkscape:pagecheckerboard="0"
   inkscape:deskcolor="#d1d1d1"
   showgrid="false"
   showguides="true"
   inkscape:zoom="1.1073232"
   inkscape:cx="264.15052"
   inkscape:cy="396.45155"
   inkscape:window-width="1920"
   inkscape:window-height="1057"
   inkscape:window-x="-8"
   inkscape:window-y="-8"
   inkscape:window-maximized="1"
   inkscape:current-layer="layer1"><sodipodi:guide
     position="0,800"
     orientation="0,792"
     id="guide1685"
     inkscape:locked="false" /><sodipodi:guide
     position="792,8"
     orientation="0,-792"
     id="guide1689"
     inkscape:locked="false" /><sodipodi:guide
     position="0,8"
     orientation="-792,0"
     id="guide1691"
     inkscape:locked="false" /><inkscape:grid
     type="xygrid"
     id="grid1693"
     originx="0"
     originy="0" /></sodipodi:namedview>
















<g
   inkscape:groupmode="layer"
   id="layer1"
   inkscape:label="Layer 1"
   transform="matrix(1.0833333,0,0,1.0833333,140.00001,75.072499)"><path
     d="m 114.69262,0.20109471 -69.386813,-0.267647 C 20.296503,-0.16302129 2.5e-6,19.124884 2.5e-6,42.771152 V 556.82738 c 0,23.64702 20.2973005,42.74124 45.3058045,42.8377 l 69.387613,0.26765 C 139.72513,600.02923 160,580.76325 160,557.09503 V 43.038799 C 159.9992,19.392532 139.72434,0.29765071 114.69262,0.20109471 Z"
     id="path388"
     style="stroke-width:0.259749;stroke-dasharray:none"
     inkscape:label="path388"
     sodipodi:nodetypes="ssssssscs" /><path
     d="m 274.69262,0.20109795 -69.38681,-0.267647 C 180.2965,-0.16301805 160,19.124887 160,42.771155 V 556.82737 c 0,23.64702 20.2973,42.74124 45.30581,42.8377 l 69.38761,0.26765 C 299.72513,600.02922 320,580.76324 320,557.09502 V 43.038802 C 319.9992,19.392535 299.72434,0.29765395 274.69262,0.20109795 Z"
     id="path388-7"
     style="display:none;stroke-width:0.259749;stroke-dasharray:none"
     inkscape:label="path388"
     sodipodi:nodetypes="ssssssscs" /><path
     d="m 434.69262,0.20109109 -69.38681,-0.267647 C 340.2965,-0.16302491 320,19.12488 320,42.77115 v 514.05623 c 0,23.64702 20.2973,42.74124 45.30581,42.8377 l 69.38761,0.26765 C 459.72513,600.02923 480,580.76325 480,557.09503 V 43.03879 C 479.9992,19.39253 459.72434,0.29764709 434.69262,0.20109109 Z"
     id="path388-5"
     style="stroke-width:0.259749;stroke-dasharray:none"
     inkscape:label="path388"
     sodipodi:nodetypes="ssssssscs" /></g></svg>
