<?xml version="1.0" encoding="UTF-8" standalone="no"?>
<!-- Generator: Adobe Illustrator 16.0.0, SVG Export Plug-In . SVG Version: 6.00 Build 0)  -->

<svg
   version="1.1"
   id="Capa_1"
   x="0px"
   y="0px"
   width="800"
   height="800"
   viewBox="0 0 800.00002 800.00002"
   xml:space="preserve"
   sodipodi:docname="play.svg"
   inkscape:version="1.2.2 (732a01da63, 2022-12-09)"
   xmlns:inkscape="http://www.inkscape.org/namespaces/inkscape"
   xmlns:sodipodi="http://sodipodi.sourceforge.net/DTD/sodipodi-0.dtd"
   xmlns="http://www.w3.org/2000/svg"
   xmlns:svg="http://www.w3.org/2000/svg"><defs
   id="defs84" /><sodipodi:namedview
   id="namedview82"
   pagecolor="#ffffff"
   bordercolor="#000000"
   borderopacity="0.25"
   inkscape:showpageshadow="2"
   inkscape:pageopacity="0.0"
   inkscape:pagecheckerboard="0"
   inkscape:deskcolor="#d1d1d1"
   showgrid="false"
   inkscape:zoom="1.1248609"
   inkscape:cx="308.92709"
   inkscape:cy="374.2685"
   inkscape:window-width="1920"
   inkscape:window-height="1057"
   inkscape:window-x="-8"
   inkscape:window-y="-8"
   inkscape:window-maximized="1"
   inkscape:current-layer="g49" />
<g
   id="g49"
   transform="matrix(0.84968899,0,0,0.83370419,58.594862,64.826176)">
	<g
   id="_x37__12_"
   style="fill:#ffffff;fill-opacity:1">
		<g
   id="g46"
   style="fill:#ffffff;fill-opacity:1">
			<path
   d="M 679.503,349.728 151.09,9.181 C 119.742,-7.703 83.832,-5.951 83.832,54.688 v 670.58 c 0,55.408 38.525,64.17 67.258,45.506 L 679.532,430.227 c 21.723,-22.252 21.723,-58.274 -0.029,-80.499 z"
   id="path44"
   style="fill:#ffffff;fill-opacity:1" />
		</g>
	</g>
</g>
<g
   id="g51"
   transform="matrix(0.98041038,0,0,0.7695731,28.312208,76.453848)">
</g>
<g
   id="g53"
   transform="matrix(0.98041038,0,0,0.7695731,28.312208,76.453848)">
</g>
<g
   id="g55"
   transform="matrix(0.98041038,0,0,0.7695731,28.312208,76.453848)">
</g>
<g
   id="g57"
   transform="matrix(0.98041038,0,0,0.7695731,28.312208,76.453848)">
</g>
<g
   id="g59"
   transform="matrix(0.98041038,0,0,0.7695731,28.312208,76.453848)">
</g>
<g
   id="g61"
   transform="matrix(0.98041038,0,0,0.7695731,28.312208,76.453848)">
</g>
<g
   id="g63"
   transform="matrix(0.98041038,0,0,0.7695731,28.312208,76.453848)">
</g>
<g
   id="g65"
   transform="matrix(0.98041038,0,0,0.7695731,28.312208,76.453848)">
</g>
<g
   id="g67"
   transform="matrix(0.98041038,0,0,0.7695731,28.312208,76.453848)">
</g>
<g
   id="g69"
   transform="matrix(0.98041038,0,0,0.7695731,28.312208,76.453848)">
</g>
<g
   id="g71"
   transform="matrix(0.98041038,0,0,0.7695731,28.312208,76.453848)">
</g>
<g
   id="g73"
   transform="matrix(0.98041038,0,0,0.7695731,28.312208,76.453848)">
</g>
<g
   id="g75"
   transform="matrix(0.98041038,0,0,0.7695731,28.312208,76.453848)">
</g>
<g
   id="g77"
   transform="matrix(0.98041038,0,0,0.7695731,28.312208,76.453848)">
</g>
<g
   id="g79"
   transform="matrix(0.98041038,0,0,0.7695731,28.312208,76.453848)">
</g>
</svg>
